<svg width="12" height="12" viewBox="0 0 12 12" fill="none" xmlns="http://www.w3.org/2000/svg">
<path d="M11.9686 4.53412C11.8896 4.28056 11.6741 4.10105 11.4201 4.07707L7.95606 3.7489L6.58705 0.404315C6.48598 0.158592 6.25599 0 6.00001 0C5.74402 0 5.51395 0.158592 5.41351 0.404315L4.0445 3.7489L0.579911 4.07707C0.32594 4.10152 0.110879 4.28104 0.0314103 4.53412C-0.0476009 4.78768 0.0253677 5.06579 0.217448 5.24157L2.83599 7.63756L2.06391 11.186C2.00742 11.4469 2.10447 11.7167 2.31193 11.8732C2.42345 11.9578 2.55446 12 2.68593 12C2.79891 12 2.91198 11.9687 3.01296 11.9056L6.00001 10.0419L8.9865 11.9056C9.20559 12.0422 9.48108 12.0297 9.68808 11.8732C9.89554 11.7167 9.99259 11.4469 9.9361 11.186L9.16403 7.63756L11.7826 5.24157C11.9746 5.06579 12.0476 4.78825 11.9686 4.53412Z" fill="white"/>
</svg>
